<svg width="111" height="36" viewBox="0 0 111 36" fill="none" xmlns="http://www.w3.org/2000/svg">
<g id="Group">
<path id="Vector" d="M86.2192 9.6867C83.0736 9.6867 80.8107 7.18583 80.8107 4.8614C80.8107 2.67731 82.7195 0 86.2192 0C89.7188 0 91.7336 2.67731 91.7336 4.8614C91.7336 7.46786 89.7899 9.6867 86.2192 9.6867Z" fill="#0F5853"/>
<path id="Vector_2" d="M79.6437 28.9906H81.4116V17.8242H79.6437V11.6944H91.3098V28.9559H93.1126V35.0844H79.6437V28.9906Z" fill="#0F5853"/>
<path id="Vector_3" d="M107.889 29.3074C108.525 29.3074 110.399 28.885 111 28.5321V34.5551C109.833 35.1191 106.333 35.4359 105.202 35.4359C97.8141 35.4359 97.5673 31.5971 97.5673 25.5728V17.2602H94.6337V11.1664H97.5673V6.72736L106.298 3.94445V11.165H110.965V17.2588H106.298V25.5715C106.333 27.1567 105.98 29.3047 107.889 29.3047V29.3074Z" fill="#0F5853"/>
<path id="Vector_4" d="M66.4941 11.9416C73.7416 11.9416 77.6289 17.7895 77.4881 23.8833C77.3472 30.9287 73.1755 35.6137 66.4592 35.6137C64.6564 35.6137 63.4196 35.3664 62.4645 34.9801V31.303C62.4645 30.1816 63.3767 29.2726 64.5021 29.2726H65.8582C65.8582 29.2726 65.9991 18.5995 60.2727 17.2963V35.0857H48.0768V30.3647C48.0768 29.7913 48.4644 29.3034 49.0131 29.1323C50.1278 28.7848 50.9044 27.8411 50.9044 26.8079V6.9038H48.6415V1.09204H60.2016V14.0896C61.2975 12.9267 64.1252 11.9403 66.4941 11.9403V11.9416Z" fill="#0F5853"/>
<path id="Vector_5" d="M49.0667 17.3658H47.83V26.066H48.4296C48.7823 26.066 49.0681 25.7813 49.0681 25.4298V17.3644L49.0667 17.3658Z" fill="#0F5853"/>
<path id="Vector_6" d="M46.3437 17.3658H45.1069V25.4311C45.1069 25.7826 45.3927 26.0673 45.7454 26.0673H46.345V17.3671L46.3437 17.3658Z" fill="#0F5853"/>
<path id="Vector_7" d="M45.9198 30.3821V35.1205H35.7037L34.5729 33.0767C32.805 35.4012 29.8365 36 28.1034 36C23.5789 36 18.6654 33.6756 18.6654 28.3918C18.6654 23.108 23.1899 20.0083 28.6346 20.0083C31.4623 20.0083 33.1591 21.3463 33.3711 21.6283V20.0083C33.3711 17.9659 31.4274 17.4727 28.8466 17.4727C26.0189 17.4727 23.544 18.5995 21.7063 19.5859L19.6916 14.3022C21.6004 13.2101 25.701 11.0608 30.1195 11.0608C35.8821 11.0608 43.0935 13.1045 43.0935 20.4655V26.9121C43.0653 27.8879 43.9452 28.8422 45.0331 29.1978C45.5549 29.3689 45.9211 29.8354 45.9211 30.3821H45.9198ZM33.3348 28.5321V26.8065C33.1927 26.5953 32.522 25.4685 30.5072 25.4685C28.5984 25.4685 27.7493 26.4897 27.7493 27.8986C27.7493 29.167 28.8452 30.0479 30.259 30.0479C31.6729 30.0479 32.8747 29.2379 33.3348 28.5335V28.5321Z" fill="#0F5853"/>
<path id="Vector_8" d="M13.257 29.7298C13.8928 29.7298 15.7667 29.3074 16.3676 28.9545V34.9775C15.2006 35.5415 11.7009 35.8583 10.5702 35.8583C3.18178 35.8583 2.93496 32.0181 2.93496 25.9952V17.6825H0V11.5888H2.93362V7.11499L11.6647 4.33208V11.5527H16.3314V17.6825H11.6647V25.9604C11.6647 27.5804 11.3106 29.7298 13.2556 29.7298H13.257Z" fill="#0F5853"/>
</g>
</svg>
